REM DIRINDEX 1\6,1\2\7,1\2\8,1\2\9,1\3\10,1\3\11,1\4\12,1\4\13,1\4\14,1\5\15,1\5\16,1\5\17
REM DIRNAME cjc041,folder01,folder02,folder03,folder04,folder05,folder06,folder07,folder08,folder09,folder10,folder11,folder12,folder13,folder14,folder15,folder16
TITLE ""
FILE "3Q_j_1117-1132.mp3" MP3
  TRACK 01 AUDIO
    TITLE "12:cjc041_0651"
    INDEX 01 00:00:00
  TRACK 02 AUDIO
    TITLE "0:"
    INDEX 01 00:01:30
  TRACK 03 AUDIO
    TITLE "13:cjc041_0652"
    INDEX 01 00:02:10
  TRACK 04 AUDIO
    TITLE "0:"
    INDEX 01 00:03:21
  TRACK 05 AUDIO
    TITLE "14:cjc041_0653"
    INDEX 01 00:04:05
  TRACK 06 AUDIO
    TITLE "0:"
    INDEX 01 00:08:28
  TRACK 07 AUDIO
    TITLE "12:cjc041_0654"
    INDEX 01 00:09:10
  TRACK 08 AUDIO
    TITLE "0:"
    INDEX 01 00:10:41
  TRACK 09 AUDIO
    TITLE "13:cjc041_0655"
    INDEX 01 00:11:21
  TRACK 10 AUDIO
    TITLE "0:"
    INDEX 01 00:12:50
  TRACK 11 AUDIO
    TITLE "14:cjc041_0656"
    INDEX 01 00:13:33
  TRACK 12 AUDIO
    TITLE "0:"
    INDEX 01 00:16:48
  TRACK 13 AUDIO
    TITLE "12:cjc041_0657"
    INDEX 01 00:17:21
  TRACK 14 AUDIO
    TITLE "0:"
    INDEX 01 00:18:54
  TRACK 15 AUDIO
    TITLE "13:cjc041_0658"
    INDEX 01 00:19:30
  TRACK 16 AUDIO
    TITLE "0:"
    INDEX 01 00:20:39
  TRACK 17 AUDIO
    TITLE "14:cjc041_0659"
    INDEX 01 00:21:21
  TRACK 18 AUDIO
    TITLE "0:"
    INDEX 01 00:26:73
  TRACK 19 AUDIO
    TITLE "12:cjc041_0660"
    INDEX 01 00:27:55
  TRACK 20 AUDIO
    TITLE "0:"
    INDEX 01 00:29:44
  TRACK 21 AUDIO
    TITLE "13:cjc041_0661"
    INDEX 01 00:30:26
  TRACK 22 AUDIO
    TITLE "0:"
    INDEX 01 00:32:25
  TRACK 23 AUDIO
    TITLE "14:cjc041_0662"
    INDEX 01 00:33:13
  TRACK 24 AUDIO
    TITLE "0:"
    INDEX 01 00:37:52
  TRACK 25 AUDIO
    TITLE "12:cjc041_0663"
    INDEX 01 00:38:35
  TRACK 26 AUDIO
    TITLE "0:"
    INDEX 01 00:40:17
  TRACK 27 AUDIO
    TITLE "13:cjc041_0664"
    INDEX 01 00:40:70
  TRACK 28 AUDIO
    TITLE "0:"
    INDEX 01 00:42:63
  TRACK 29 AUDIO
    TITLE "14:cjc041_0665"
    INDEX 01 00:43:40
  TRACK 30 AUDIO
    TITLE "0:"
    INDEX 01 00:46:39
  TRACK 31 AUDIO
    TITLE "12:cjc041_0666"
    INDEX 01 00:47:21
  TRACK 32 AUDIO
    TITLE "0:"
    INDEX 01 00:49:12
  TRACK 33 AUDIO
    TITLE "13:cjc041_0667"
    INDEX 01 00:49:63
  TRACK 34 AUDIO
    TITLE "0:"
    INDEX 01 00:51:56
  TRACK 35 AUDIO
    TITLE "14:cjc041_0668"
    INDEX 01 00:52:34
  TRACK 36 AUDIO
    TITLE "0:"
    INDEX 01 00:55:42
  TRACK 37 AUDIO
    TITLE "12:cjc041_0669"
    INDEX 01 00:56:24
  TRACK 38 AUDIO
    TITLE "0:"
    INDEX 01 00:58:01
  TRACK 39 AUDIO
    TITLE "13:cjc041_0670"
    INDEX 01 00:58:56
  TRACK 40 AUDIO
    TITLE "0:"
    INDEX 01 01:00:04
  TRACK 41 AUDIO
    TITLE "14:cjc041_0671"
    INDEX 01 01:00:62
  TRACK 42 AUDIO
    TITLE "0:"
    INDEX 01 01:03:35
  TRACK 43 AUDIO
    TITLE "12:cjc041_0672"
    INDEX 01 01:04:19
  TRACK 44 AUDIO
    TITLE "0:"
    INDEX 01 01:06:30
  TRACK 45 AUDIO
    TITLE "13:cjc041_0673"
    INDEX 01 01:07:08
  TRACK 46 AUDIO
    TITLE "0:"
    INDEX 01 01:11:27
  TRACK 47 AUDIO
    TITLE "14:cjc041_0674"
    INDEX 01 01:12:05
  TRACK 48 AUDIO
    TITLE "0:"
    INDEX 01 01:15:31
  TRACK 49 AUDIO
    TITLE "12:cjc041_0675"
    INDEX 01 01:16:09
  TRACK 50 AUDIO
    TITLE "0:"
    INDEX 01 01:17:39
  TRACK 51 AUDIO
    TITLE "13:cjc041_0676"
    INDEX 01 01:18:17
  TRACK 52 AUDIO
    TITLE "0:"
    INDEX 01 01:19:13
  TRACK 53 AUDIO
    TITLE "14:cjc041_0677"
    INDEX 01 01:19:66
  TRACK 54 AUDIO
    TITLE "0:"
    INDEX 01 01:24:28
  TRACK 55 AUDIO
    TITLE "12:cjc041_0678"
    INDEX 01 01:25:11
  TRACK 56 AUDIO
    TITLE "0:"
    INDEX 01 01:27:01
  TRACK 57 AUDIO
    TITLE "13:cjc041_0679"
    INDEX 01 01:27:53
  TRACK 58 AUDIO
    TITLE "0:"
    INDEX 01 01:29:62
  TRACK 59 AUDIO
    TITLE "14:cjc041_0680"
    INDEX 01 01:30:32
  TRACK 60 AUDIO
    TITLE "0:"
    INDEX 01 01:33:23
  TRACK 61 AUDIO
    TITLE "12:cjc041_0681"
    INDEX 01 01:33:74
  TRACK 62 AUDIO
    TITLE "0:"
    INDEX 01 01:35:41
  TRACK 63 AUDIO
    TITLE "13:cjc041_0682"
    INDEX 01 01:36:21
  TRACK 64 AUDIO
    TITLE "0:"
    INDEX 01 01:37:44
  TRACK 65 AUDIO
    TITLE "14:cjc041_0683"
    INDEX 01 01:38:22
  TRACK 66 AUDIO
    TITLE "0:"
    INDEX 01 01:42:02
  TRACK 67 AUDIO
    TITLE "12:cjc041_0684"
    INDEX 01 01:42:57
  TRACK 68 AUDIO
    TITLE "0:"
    INDEX 01 01:44:40
  TRACK 69 AUDIO
    TITLE "13:cjc041_0685"
    INDEX 01 01:45:20
  TRACK 70 AUDIO
    TITLE "0:"
    INDEX 01 01:47:03
  TRACK 71 AUDIO
    TITLE "14:cjc041_0686"
    INDEX 01 01:47:58
  TRACK 72 AUDIO
    TITLE "0:"
    INDEX 01 01:53:04
  TRACK 73 AUDIO
    TITLE "12:cjc041_0687"
    INDEX 01 01:53:61
  TRACK 74 AUDIO
    TITLE "0:"
    INDEX 01 01:55:58
  TRACK 75 AUDIO
    TITLE "13:cjc041_0688"
    INDEX 01 01:56:34
  TRACK 76 AUDIO
    TITLE "0:"
    INDEX 01 01:58:58
  TRACK 77 AUDIO
    TITLE "14:cjc041_0689"
    INDEX 01 01:59:38
  TRACK 78 AUDIO
    TITLE "0:"
    INDEX 01 02:04:43
  TRACK 79 AUDIO
    TITLE "12:cjc041_0690"
    INDEX 01 02:05:23
  TRACK 80 AUDIO
    TITLE "0:"
    INDEX 01 02:07:10
  TRACK 81 AUDIO
    TITLE "13:cjc041_0691"
    INDEX 01 02:07:65
  TRACK 82 AUDIO
    TITLE "0:"
    INDEX 01 02:10:06
  TRACK 83 AUDIO
    TITLE "14:cjc041_0692"
    INDEX 01 02:10:63
  TRACK 84 AUDIO
    TITLE "0:"
    INDEX 01 02:13:71
  TRACK 85 AUDIO
    TITLE "12:cjc041_0693"
    INDEX 01 02:14:53
  TRACK 86 AUDIO
    TITLE "0:"
    INDEX 01 02:16:40
  TRACK 87 AUDIO
    TITLE "13:cjc041_0694"
    INDEX 01 02:17:14
  TRACK 88 AUDIO
    TITLE "0:"
    INDEX 01 02:20:38
  TRACK 89 AUDIO
    TITLE "14:cjc041_0695"
    INDEX 01 02:21:16
  TRACK 90 AUDIO
    TITLE "0:"
    INDEX 01 02:23:56
  TRACK 91 AUDIO
    TITLE "12:cjc041_0696"
    INDEX 01 02:24:38
  TRACK 92 AUDIO
    TITLE "0:"
    INDEX 01 02:26:29
  TRACK 93 AUDIO
    TITLE "13:cjc041_0697"
    INDEX 01 02:27:11
  TRACK 94 AUDIO
    TITLE "0:"
    INDEX 01 02:29:45
  TRACK 95 AUDIO
    TITLE "14:cjc041_0698"
    INDEX 01 02:30:25
  TRACK 96 AUDIO
    TITLE "0:"
    INDEX 01 02:33:62
